# xmcd
# 
# Track frame offsets:
#     183
#     17040
#     33603
#     49283
#     70015
#     82748
#     105760
#     120065
#     138878
#     157103
#     170485
# 
# Disc length: 2530
# 
# Revision: 13
# Processed by: cddbd v1.5.2PL0 Copyright (c) Steve Scherf et al.
# Submitted via: fre:ac v1.0.17
# 
DISCID=7c09e00b
DTITLE=Maria Bethânia - As Canções Que Você Fez Pra Mim
DYEAR=1993
DGENRE=MPB
TTITLE0=As Canções Que Você Fez Pra Mim
TTITLE1=Olha
TTITLE2=Fera Ferida
TTITLE3=Palavras
TTITLE4=Costumes
TTITLE5=Detalhes
TTITLE6=Você Não Sabe
TTITLE7=Eu Preciso de Você
TTITLE8=Seu Corpo
TTITLE9=Você
TTITLE10=Emoções
EXTD=
EXTT0=
EXTT1=
EXTT2=
EXTT3=
EXTT4=
EXTT5=
EXTT6=
EXTT7=
EXTT8=
EXTT9=
EXTT10=
PLAYORDER=
